# xmcd CD database file
#
# Track frame offsets:
#	150
#	27376
#	51041
#	74095
#	98510
#	126586
#	149533
#	176770
#	201895
#	226823
#
# Disc length: 3424 seconds
#
# Revision: 0
# Processed by: cddbd v1.4PL0 Copyright (c) Steve Scherf et al.
# Submitted via: CDex 1.51
#
DISCID=950d5e0a
DTITLE=Vince Mai - Subte
DYEAR=2003
DGENRE=Jazz
TTITLE0=Tetra
TTITLE1=U and I
TTITLE2=Por La Ventana
TTITLE3=Subte
TTITLE4=El Castillo
TTITLE5=Naked Projektions
TTITLE6=Gecko
TTITLE7=For Carole
TTITLE8=Pumpin
TTITLE9=Nova Bossa
EXTD=YEAR: 2003
EXTT0=
EXTT1=
EXTT2=
EXTT3=
EXTT4=
EXTT5=
EXTT6=
EXTT7=
EXTT8=
EXTT9=
PLAYORDER=
